<?xml version="1.0" encoding="utf-8" ?><svg xmlns="http://www.w3.org/2000/svg" xmlns:xlink="http://www.w3.org/1999/xlink" width="1024" height="1024" viewBox="0 0 1024 1024"><path fill="#15122B" d="M0 0L1024 0L1024 1024L0 1024L0 0Z"/><path fill="#7A87A2" d="M583.455 591.252C592.424 591.133 601.394 591.059 610.364 591.032C621.162 590.991 630.487 590.411 640.801 594.334C661.473 602.199 676.971 620.249 677.169 643.007C677.384 667.716 655.696 689.607 632.182 694.12C622.293 696.019 611.717 695.406 601.649 695.377L562.169 695.219L438.282 695.157L410.021 695.126C399.88 695.11 389.529 695.637 379.833 692.246C358.963 684.949 343.879 666.529 343.522 644.146C343.202 631.411 348.115 619.101 357.116 610.085C364.456 602.623 373.84 597.499 384.086 595.358C392.533 593.577 404.643 593.882 413.588 593.735L457.668 593.109L583.455 591.252Z"/><path fill="#15122B" d="M623.464 603.608C637.835 607.824 651.168 612.501 658.695 626.25C668.599 644.341 660.544 666.691 642.474 675.801C636.693 678.715 631.303 680.907 625.147 682.713L624.89 681.88C651.011 671.54 660.659 644.324 642.866 621.035C637.423 613.91 630.515 609.014 622.723 604.661L623.464 603.608Z"/><path fill="#24273B" d="M622.723 604.661C621.938 604.26 619.948 603.372 619.45 602.789L619.536 602.723L620.373 602.784L620.02 602.717C621.168 602.878 622.358 603.271 623.464 603.608L622.723 604.661Z"/><path fill="#434D60" d="M625.147 682.713C622.532 683.796 621.524 683.238 624.016 682.242L624.89 681.88L625.147 682.713Z"/><path fill="#7A87A2" d="M612.115 481.701C624.621 481.492 636.728 486.103 645.927 494.579C672.679 518.824 659.276 559.216 626.421 568.374C616.686 571.088 601.953 570.759 591.676 571.056L550.975 572.169L413.905 576.451C400.842 576.467 385.805 579.73 375.111 570.941C369.836 566.606 366.416 560.045 365.87 553.25C365.352 546.409 367.64 539.652 372.206 534.533C381.462 524.099 401.038 523.006 414.331 520.326L481.275 507.002C511.01 500.88 540.788 494.97 570.607 489.272C582.412 486.991 601.162 482.47 612.115 481.701Z"/><path fill="#15122B" d="M606.397 491.267C620.202 493.216 632.811 495.354 641.87 507.501C646.562 513.837 648.496 521.799 647.232 529.582C644.782 545.62 634.52 553.278 620.158 558.442L619.766 557.299C626.354 554.137 632.958 549.657 635.019 542.292C641.773 518.149 628.002 499.207 605.771 491.931L606.397 491.267Z"/><path fill="#24273B" d="M620.158 558.442C619.17 558.769 615.177 560.329 614.432 559.699C614.542 559.426 619.024 557.644 619.766 557.299L620.158 558.442Z"/><path fill="#434D60" d="M605.771 491.931C605.408 491.788 604.817 491.667 604.597 491.298C604.654 490.73 606.197 491.219 606.397 491.267L605.771 491.931Z"/><path fill="#7A87A2" d="M570.184 713.03C582.597 712.89 595.477 712.847 607.876 713.04C622.359 713.265 630.841 713.027 645.03 709.519C644.743 720.421 651.975 734 659.399 741.658C650.134 744.961 641.099 748.82 631.946 752.374C628.91 753.553 622.376 756.507 619.524 757.29L617.745 757.978L582.002 772.399C575.483 775.061 567.625 778.57 561.098 780.885L560.283 781.129C544.542 788.071 528.121 794.466 512.14 801.439C494.385 793.72 476.548 786.191 458.633 778.852L456.371 778.079C447.343 774.461 431.316 767.058 422.831 764.531C420.307 763.215 416.513 761.834 413.753 760.852C403.308 757.14 393.142 752.287 382.726 748.614L381.94 748.366C373.158 745.674 360.308 739.914 350.705 736.571L349.09 736.08C366.59 706.95 399.922 726.215 425.141 712.92L427.144 712.983C434.225 712.627 449.107 713.476 454.882 712.658L456.353 712.925C460.638 712.461 466.188 712.803 470.62 712.744C481.301 712.601 492.476 713.165 503.115 712.931L504.231 713.103C523.746 712.241 549.45 712.915 569.306 713.076L570.184 713.03Z"/><path fill="#7A87A2" d="M456.353 712.925C460.638 712.461 466.188 712.803 470.62 712.744C481.301 712.601 492.476 713.165 503.115 712.931C498.877 716.858 494.499 720.603 490.317 724.583C480.905 733.538 472.066 743.761 460.72 750.356C451.47 755.732 440.392 758.427 430.222 761.548C427.71 762.319 424.803 762.75 422.831 764.531C420.307 763.215 416.513 761.834 413.753 760.852C403.308 757.14 393.142 752.287 382.726 748.614L381.94 748.366C373.158 745.674 360.308 739.914 350.705 736.571L349.09 736.08C366.59 706.95 399.922 726.215 425.141 712.92L427.144 712.983C434.225 712.627 449.107 713.476 454.882 712.658L456.353 712.925Z"/><path fill="#7A87A2" d="M427.144 712.983C434.225 712.627 449.107 713.476 454.882 712.658C446.956 726.166 437.962 732.414 422.926 736.552C415.357 738.636 385.013 740.741 381.94 748.366C373.158 745.674 360.308 739.914 350.705 736.571L349.09 736.08C366.59 706.95 399.922 726.215 425.141 712.92L427.144 712.983Z"/><path fill="#FCFCFC" d="M425.141 712.92L427.144 712.983C423.788 715.579 418.693 717.506 414.576 718.461C386.756 724.91 370.933 710.31 350.705 736.571L349.09 736.08C366.59 706.95 399.922 726.215 425.141 712.92Z"/><path fill="#FCFCFC" d="M454.882 712.658L456.353 712.925C444.676 737.058 421.359 738.775 398.038 742.358C392.625 743.19 387.361 747.106 382.726 748.614L381.94 748.366C385.013 740.741 415.357 738.636 422.926 736.552C437.962 732.414 446.956 726.166 454.882 712.658Z"/><path fill="#7A87A2" d="M570.184 713.03C582.597 712.89 595.477 712.847 607.876 713.04C622.359 713.265 630.841 713.027 645.03 709.519C644.743 720.421 651.975 734 659.399 741.658C650.134 744.961 641.099 748.82 631.946 752.374C628.91 753.553 622.376 756.507 619.524 757.29C617.446 755.407 615.167 754.517 612.764 753.111C602.363 747.027 590.931 742.707 580.474 736.774C572.127 732.038 568.463 725.269 570.063 715.752C570.239 714.706 570.271 714.069 570.184 713.03Z"/><path fill="#7A87A2" d="M458.633 778.852C469.337 771.737 497.302 761.549 510.518 759.03C514.576 758.257 520.827 758.313 524.936 759.214C540.321 762.587 549.414 771.097 560.283 781.129C544.542 788.071 528.121 794.466 512.14 801.439C494.385 793.72 476.548 786.191 458.633 778.852Z"/><path fill="#FCFCFC" d="M456.371 778.079C467.196 770.146 495.093 761.281 507.997 757.95C524.441 753.705 542.766 762.4 554.543 773.267C556.34 774.925 560.521 778.39 561.098 780.885L560.283 781.129C549.414 771.097 540.321 762.587 524.936 759.214C520.827 758.313 514.576 758.257 510.518 759.03C497.302 761.549 469.337 771.737 458.633 778.852L456.371 778.079Z"/><path fill="#FCFCFC" d="M503.115 712.931L504.231 713.103C502.033 716.885 494.702 722.164 491.46 725.593C471.197 747.029 458.683 756.683 429.251 763.603C427.068 764.116 425.167 764.874 422.831 764.531C424.803 762.75 427.71 762.319 430.222 761.548C440.392 758.427 451.47 755.732 460.72 750.356C472.066 743.761 480.905 733.538 490.317 724.583C494.499 720.603 498.877 716.858 503.115 712.931Z"/><path fill="#FCFCFC" d="M569.306 713.076L570.184 713.03C570.271 714.069 570.239 714.706 570.063 715.752C568.463 725.269 572.127 732.038 580.474 736.774C590.931 742.707 602.363 747.027 612.764 753.111C615.167 754.517 617.446 755.407 619.524 757.29L617.745 757.978C612.501 754.726 607.328 752.048 601.876 749.177C586.67 741.17 562.228 735.734 569.306 713.076Z"/><path fill="#7A87A2" d="M563.799 401.204C573.744 399.649 584.914 403.337 592.952 409.201C615.366 425.552 610.809 458.769 585.909 469.904C577.783 473.537 569.004 474.621 560.284 476.318L531.359 481.892C506.114 486.748 478.344 492.727 453.122 496.808C453.092 496.815 453.063 496.821 453.033 496.827C442.046 498.026 431.038 494.762 422.481 487.768C405.851 474.273 405.811 450.939 418.988 434.898C433.298 417.478 451.678 416.148 472.546 413.25C486.633 411.295 500.735 409.455 514.852 407.729C530.415 405.753 548.582 402.725 563.799 401.204Z"/><path fill="#15122B" d="M564.401 410.221C596.276 412.555 607.697 447.893 578.675 462.389L578.349 461.386C581.506 459.328 584.243 455.581 585.443 452.042C591.061 435.485 578.232 416.469 562.835 410.964L564.401 410.221Z"/><path fill="#434D60" d="M569.498 465.291C572.096 464.056 575.099 463.097 577.521 461.813L578.349 461.386L578.675 462.389C575.968 464.167 572.629 464.576 569.498 465.291Z"/><path fill="#24273B" d="M561.244 409.815L562.966 409.958C563.622 410.015 563.787 410.037 564.401 410.221L562.835 410.964C562.168 410.868 561.504 410.758 560.842 410.636L561.244 409.815Z"/><path fill="#434D60" d="M560.842 410.636C560.393 410.493 559.024 410.143 558.751 409.739C559.225 409.213 560.686 409.647 561.244 409.815L560.842 410.636Z"/><path fill="#FCFCFC" d="M504.927 223.396C534.738 219.395 562.152 240.306 566.173 270.114C570.194 299.921 549.301 327.349 519.496 331.39C489.663 335.435 462.203 314.518 458.178 284.682C454.153 254.846 475.089 227.401 504.927 223.396Z"/><path fill="#15122B" d="M510.417 233.351C534.748 232.344 555.306 251.214 556.383 275.542C557.46 299.87 538.651 320.483 514.326 321.631C489.901 322.785 469.184 303.88 468.102 279.451C467.02 255.023 485.985 234.361 510.417 233.351Z"/><path fill="#FCFCFC" d="M510.755 252.676C541.781 249.853 553.517 295.881 515.116 302.456C501.467 303.105 488.225 296 486.118 281.457C485.077 274.653 486.919 267.724 491.202 262.336C496.411 255.867 502.958 253.67 510.755 252.676Z"/><path fill="#7A87A2" d="M557.302 335.659C563.186 334.763 570.114 336.361 575.113 339.596C580.492 343.012 584.281 348.437 585.638 354.662C588.845 370.056 577.017 382.902 562.503 385.322C551.998 387.074 541.415 389.142 530.91 390.987L467.215 402.338C446.914 404.714 430.122 386.665 442.985 367.903C449.656 358.173 462.427 357.374 473.176 354.618C492.338 349.705 512.19 346.21 531.431 341.559C539.86 339.544 548.814 337.006 557.302 335.659Z"/><path fill="#15122B" d="M557.235 342.86C556.805 342.784 555.995 342.712 555.77 342.297L555.8 342.226C556.728 341.767 559.922 342.117 560.974 342.235C579.116 345.68 582.241 364.792 567.579 374.328C566.709 374.883 565.844 375.448 564.986 376.021C566.603 374.242 569.352 371.745 570.071 369.505C573.455 358.96 567.333 347.356 557.515 342.987L557.235 342.86Z"/><path fill="#7A87A2" d="M681.218 683.354C684.219 684.169 687.144 685.096 690.112 686.021L690.553 686.1C703.832 689.475 717.124 693.2 730.376 696.72C740.024 699.283 750.694 701.644 759.95 705.161C734.796 713.021 710.055 722.627 685.277 731.592C681.948 732.797 678.281 734.457 674.933 735.459C670.739 737.599 664.638 739.907 660.128 741.418L659.399 741.658C651.975 734 644.743 720.421 645.03 709.519L646.836 708.756C660.531 704.661 673.176 695.104 681.218 683.354Z"/><path fill="#7A87A2" d="M681.218 683.354C684.219 684.169 687.144 685.096 690.112 686.021L690.553 686.1C690.956 687.569 683.023 693.615 681.437 694.92C669.57 704.685 662.79 716.467 671.927 730.987C672.928 732.577 674.347 733.648 674.933 735.459C670.739 737.599 664.638 739.907 660.128 741.418L659.399 741.658C651.975 734 644.743 720.421 645.03 709.519L646.836 708.756C660.531 704.661 673.176 695.104 681.218 683.354Z"/><path fill="#FCFCFC" d="M690.112 686.021L690.553 686.1C690.956 687.569 683.023 693.615 681.437 694.92C669.57 704.685 662.79 716.467 671.927 730.987C672.928 732.577 674.347 733.648 674.933 735.459C668.723 735.561 665.528 719.718 666.526 714.249C668.827 701.633 680.489 694.441 689.416 686.641L690.112 686.021Z"/><path fill="#FCFCFC" d="M645.03 709.519L646.836 708.756L646.855 709.186C646.933 711.339 647.57 715.782 647.54 717.5C647.405 725.119 659.201 736.774 660.128 741.418L659.399 741.658C651.975 734 644.743 720.421 645.03 709.519Z"/><path fill="#7A87A2" d="M263.712 704.932C289.425 697.976 314.435 690.938 340.281 684.238C342.065 686.879 342.949 688.098 345.083 690.528C355.891 703.252 371.349 711.111 387.998 712.346C399.953 713.295 413.362 712.169 425.141 712.92C399.922 726.215 366.59 706.95 349.09 736.08C347.357 735.007 340.174 732.526 337.889 731.613C328.259 727.764 317.168 724.429 307.754 720.263L306.21 719.842C301.208 717.636 294.09 715.389 288.749 713.509C280.55 710.622 271.971 707.5 263.712 704.932Z"/><path fill="#7A87A2" d="M263.712 704.932C289.425 697.976 314.435 690.938 340.281 684.238C342.065 686.879 342.949 688.098 345.083 690.528L344.777 691.054C344.744 691.115 344.712 691.177 344.679 691.238C330.359 699.873 317.075 705.448 307.754 720.263L306.21 719.842C301.208 717.636 294.09 715.389 288.749 713.509C280.55 710.622 271.971 707.5 263.712 704.932Z"/><path fill="#FCFCFC" d="M306.21 719.842C309.603 709.152 330.797 697.072 340.414 692.193C342.508 691.131 342.781 690.659 345.083 690.528L344.777 691.054C344.744 691.115 344.712 691.177 344.679 691.238C330.359 699.873 317.075 705.448 307.754 720.263L306.21 719.842Z"/><path fill="#23FCFE" d="M301.106 557.947C315.44 556.276 328.395 566.593 329.975 580.938C331.555 595.283 321.157 608.172 306.803 609.662C292.576 611.138 279.825 600.852 278.259 586.635C276.693 572.417 286.899 559.602 301.106 557.947Z"/><path fill="#15122B" d="M303.234 568.846C311.635 568.234 318.929 574.573 319.496 582.977C320.062 591.38 313.684 598.64 305.278 599.161C296.935 599.678 289.742 593.359 289.18 585.02C288.618 576.68 294.898 569.453 303.234 568.846Z"/><path fill="#C4E27B" d="M357.157 376.993C368.413 375.683 378.594 383.762 379.875 395.022C381.155 406.282 373.048 416.441 361.785 417.692C350.564 418.937 340.451 410.867 339.176 399.65C337.9 388.433 345.943 378.299 357.157 376.993Z"/><path fill="#15122B" d="M358.293 387.598C361.79 387.111 365.279 388.541 367.428 391.343C369.576 394.145 370.052 397.886 368.674 401.137C367.296 404.387 364.276 406.646 360.769 407.05C355.434 407.665 350.598 403.874 349.92 398.547C349.242 393.22 352.975 388.339 358.293 387.598Z"/><path fill="#F5B154" d="M687.35 428.925C698.487 427.139 708.944 434.778 710.628 445.931C712.313 457.084 704.578 467.47 693.41 469.053C682.386 470.615 672.162 463.001 670.499 451.992C668.836 440.982 676.356 430.689 687.35 428.925Z"/><path fill="#15122B" d="M687.333 439.823C690.589 438.603 694.249 439.232 696.91 441.47C699.571 443.708 700.819 447.206 700.174 450.623C699.529 454.039 697.093 456.843 693.799 457.957C688.821 459.642 683.411 457.022 681.645 452.071C679.88 447.12 682.412 441.669 687.333 439.823Z"/></svg>